<svg width="24" height="24" viewBox="0 0 24 24"  xmlns="http://www.w3.org/2000/svg">
<g clip-path="url(#clip0_2001_5153)">
<mask id="mask0_2001_5153" style="mask-type:luminance" maskUnits="userSpaceOnUse" x="0" y="0" width="24" height="24">
<path d="M24 0H0V24H24V0Z" />
</mask>
<g mask="url(#mask0_2001_5153)">
<mask id="mask1_2001_5153" style="mask-type:luminance" maskUnits="userSpaceOnUse" x="0" y="0" width="24" height="24">
<path d="M24 0H0V24H24V0Z" />
</mask>
<g mask="url(#mask1_2001_5153)">
<path d="M12.1038 0.00041571C5.39344 -0.0547843 -0.0557609 5.39442 -0.000560853 12.1048C0.0558391 18.6208 5.37904 23.9452 11.8938 23.9992C18.6042 24.0568 24.0558 18.6052 23.9982 11.8948C23.9442 5.38122 18.6198 0.0568157 12.1038 0.00041571ZM8.51584 5.97282C9.28384 6.94842 9.74344 8.18322 9.74344 9.52242C9.74344 10.6828 9.39904 11.7628 8.80744 12.664H4.64704L8.51464 5.97162L8.51584 5.97282ZM21.1998 13.2832V14.1472C21.1998 14.2036 21.1698 14.2516 21.1182 14.2732C20.8362 14.3932 19.9062 14.8252 19.5186 15.3628C18.5202 16.7524 17.7582 18.9364 16.0542 18.9364H8.94424C6.42664 18.9364 4.32064 16.9384 4.32184 14.2768C4.32184 14.2108 4.37824 14.1568 4.44424 14.1568H7.81384C7.93024 14.1568 8.02144 14.2504 8.02144 14.3644V15.0148C8.02144 15.3604 8.30104 15.6412 8.64784 15.6412H11.2038V14.1532H9.45784C10.4622 12.8812 11.0598 11.2756 11.0598 9.52722C11.0598 7.57722 10.3122 5.79882 9.08824 4.46922C9.82864 4.55562 10.5366 4.70322 11.2038 4.89882V4.48482C11.2038 4.05522 11.5518 3.70722 11.9814 3.70722C12.411 3.70722 12.759 4.05522 12.759 4.48482V5.48322C15.1446 6.59682 16.707 8.44482 16.707 10.5352C16.707 11.7616 16.1706 12.9028 15.2454 13.8628C15.0678 14.0464 14.8218 14.1508 14.5638 14.1508H12.7602V15.6364H15.0246C15.513 15.6364 16.389 14.71 16.8042 14.152C16.8042 14.152 16.8222 14.1244 16.8702 14.11C16.9182 14.0956 21.0282 13.1524 21.0282 13.1524C21.1146 13.1284 21.1998 13.1944 21.1998 13.282V13.2832Z" />
</g>
</g>
</g>
<defs>

</defs>
</svg>
