<svg xmlns="http://www.w3.org/2000/svg"><path d="M18.942 5.885a17.058 17.058 0 0 0-4.126-1.218 11.05 11.05 0 0 0-.529 1.031 16.116 16.116 0 0 0-4.573 0c-.143-.323-.355-.73-.535-1.031-1.448.235-2.834.65-4.129 1.221-2.611 3.707-3.319 7.323-2.965 10.887a16.916 16.916 0 0 0 5.06 2.436c.408-.527.771-1.087 1.084-1.677a10.96 10.96 0 0 1-1.706-.78c.143-.1.283-.204.418-.311 3.29 1.446 6.866 1.446 10.118 0 .137.107.277.21.418.31-.54.307-1.113.57-1.71.782.314.59.675 1.15 1.084 1.677a16.884 16.884 0 0 0 5.064-2.437c.415-4.132-.71-7.714-2.973-10.89ZM8.678 14.583c-.988 0-1.798-.867-1.798-1.922s.792-1.923 1.798-1.923c1.005 0 1.815.867 1.798 1.923.001 1.055-.793 1.922-1.798 1.922Zm6.644 0c-.988 0-1.798-.867-1.798-1.922s.793-1.923 1.798-1.923 1.816.867 1.798 1.923c0 1.055-.793 1.922-1.798 1.922Z"/></svg>