<svg width="72" height="50" fill="none" xmlns="http://www.w3.org/2000/svg"><g clip-path="url(#a)" ><path d="M.525 36.533h4.722c2.792 0 4.537 1.295 4.518 3.276-.007.852 0 1.916-1.059 2.89.734 0 1.575 1.037 1.575 3.094 0 2.616-1.467 4.016-3.772 4.016H.525V36.533Zm2.897 2.845v2.41h2.287c.845 0 1.048-.744 1.048-1.132v-.092c0-.755-.286-1.15-1.048-1.15l-2.287-.036Zm0 4.92v2.852h2.681c.641 0 .883-.684.883-1.287v-.197c0-.91-.415-1.35-1.181-1.35l-2.383-.02v.002ZM13.614 43.908 9.23 36.533h3.812l2.116 4.326 2.325-4.326h3.469l-4.25 7.375v5.9h-3.088v-5.9ZM43.451 40.824c0 2.68-2.05 4.838-6.525 4.838v4.143H33.8V36.553h4.748c3.67 0 4.904 1.59 4.904 4.27Zm-6.525 2.361h1.091c1.407 0 2.511-.819 2.511-2.361 0-1.543-.897-1.964-2.51-1.964h-1.092v4.326ZM.525 34.745V17.371h4.423l5.068 9.296 5.345-9.296h4.422v17.374h-4.422v-7.938l-5.345 7.938-5.068-7.938v7.938H.525ZM25.225 17.371h6.018l4.391 17.374h-3.908l-1.028-3.23h-5.067l-.95 3.23h-3.986l4.53-17.374Zm3.01 4.585-1.992 6.362h3.836l-1.845-6.362ZM51.121 17.372H63.52v3.927h-8.45v2.734h8.45v3.827h-8.45v3.257h8.45v3.628H51.12V17.371ZM44.14 36.553h9.457v2.995h-6.445v2.086h6.445v2.92h-6.445v2.483h6.445v2.768h-9.456V36.553ZM25.166 36.553h4.591l3.35 13.252h-2.981l-.784-2.465h-3.865l-.726 2.465h-3.04l3.456-13.252Zm2.297 3.497-1.519 4.853h2.926l-1.407-4.853ZM42.12 34.77l-5.628-.015V17.38l5.628-.054c5.274 0 8.09 2.552 8.09 8.854 0 4.833-2.703 8.59-8.09 8.59Zm-1.753-3.757h1.753c2.462 0 3.963-1.565 3.963-4.834 0-3.268-1.171-4.792-3.963-4.792h-1.753v9.626Z"/><path fill-rule="evenodd" clip-rule="evenodd" d="M54.723 40.238c0-2.067 1.482-3.569 3.88-3.773 2-.172 3.823.552 5.206 1.47l-1.264 2.807s-1.414-.818-2.245-1.08c-.653-.207-1.52-.012-1.698.43-.178.441-.145.893.431 1.182l.154.077c.318.157.798.395 1.342.726h.01s1.169.629 2.082 1.64c.074.076.148.155.22.236h-.016c.49.603.862 1.322.862 2.11 0 2.067-1.708 3.711-4.105 3.916-2 .171-3.83-.74-5.213-1.658l.977-2.812s1.934.868 2.764 1.131c.652.206 1.52.012 1.697-.43.178-.442.2-.757-.43-1.183-.198-.132-.434-.27-.7-.426-.2-.116-.417-.242-.646-.384-.25-.13-3.31-1.78-3.31-3.98h.002Z"/><path d="M68.785 20.223v-2.897h.695l.866 1.55.828-1.55h.823v2.897h-.695v-1.43l-.956 1.43-.823-1.43v1.43h-.738ZM65.89 17.936v-.61h2.634v.61h-.96v2.287h-.705v-2.287h-.968ZM14.955 1.335l-1.494-.247a.084.084 0 0 1-.021-.161c3.47-1.475 7.13-.871 9.798 1.445.096.083.07.232-.043.29-.48.244-1.014.6-1.252.765a.193.193 0 0 1-.24-.019c-1.71-1.582-4.871-1.798-6.748-2.074ZM49.092 1.335l1.495-.247a.084.084 0 0 0 .021-.161c-3.471-1.475-7.132-.871-9.8 1.445-.094.083-.07.232.044.29.48.244 1.014.6 1.252.765.074.05.175.041.24-.019 1.71-1.582 4.871-1.798 6.748-2.074ZM32.113 2.606c-2.4 0-3.743-.59-6.104-.623-.08-.001-.12-.094-.061-.146C27.633.347 30.879 0 32.008 0c.947 0 4.09.275 5.92 1.827.063.053.021.149-.062.147-2.368-.036-2.385.632-5.754.632Z"/><path fill-rule="evenodd" clip-rule="evenodd" d="M2.353 14.778H.893a.36.36 0 0 1-.345-.483c.16-.429.37-1.042.397-1.396.026-.338.015-.618.004-.872-.022-.512-.04-.919.27-1.486.254-.466.534-.84.82-1.22.359-.477.725-.964 1.057-1.66.254-.532.418-1.288.593-2.097.162-.746.333-1.537.593-2.237.542-1.46.735-1.98 2.06-2.197 1.297-.212 2.777.197 4.28.614.861.239 1.73.48 2.576.605.533.08 1.074.15 1.61.218 2.252.288 4.448.568 5.826 1.595.163.122.163.354.04.514-.516.67-.946 1.864-1.028 3.3-.06 1.031.192 2.316.656 3.903.268.916-.207 1.907-.522 2.565l-.06.123a.374.374 0 0 1-.337.212H8.143a.369.369 0 0 1-.37-.348c-.079-1.644-.731-3.36-2.412-3.36s-2.435 2.048-2.64 3.393a.372.372 0 0 1-.368.316v-.002Zm2.843-5.722c-.684-.711-.367-1.36-.01-2.087.12-.248.246-.504.338-.775.1-.296.18-.606.26-.91.312-1.2.606-2.335 2.043-2.335 0 0 .99.083 1.56.41 1.438.829 1.343 3.914-.09 5.38-1.226 1.254-3.485.96-4.101.317Zm7.236 1.67c1.376.971 3.589.716 4.554-.036 1.269-.989 1.551-4.3.475-5.266-1.161-1.042-2.423-1.157-3.786-.526-1.542.714-2.203 5.151-1.244 5.828ZM61.693 14.778h1.46a.36.36 0 0 0 .344-.483c-.16-.429-.37-1.042-.397-1.396a6.749 6.749 0 0 1-.003-.872c.02-.512.038-.919-.271-1.486-.254-.466-.534-.84-.82-1.22-.358-.477-.725-.964-1.057-1.66-.253-.532-.417-1.288-.593-2.097-.161-.746-.333-1.537-.593-2.237-.542-1.46-.734-1.98-2.06-2.197-1.297-.212-2.777.197-4.28.614-.86.239-1.73.48-2.576.605-.533.08-1.073.15-1.61.218-2.252.288-4.448.568-5.826 1.595-.163.122-.163.354-.04.514.516.67.946 1.864 1.028 3.3.06 1.031-.192 2.316-.656 3.903-.243.831.124 1.722.43 2.371a.94.94 0 0 0 .85.529h10.88c.2 0 .36-.156.37-.348.079-1.644.731-3.36 2.412-3.36s2.436 2.048 2.64 3.393a.372.372 0 0 0 .368.316v-.002ZM58.85 9.056c.684-.711.367-1.36.01-2.087a6.643 6.643 0 0 1-.338-.775c-.1-.296-.18-.606-.26-.91-.312-1.2-.607-2.335-2.043-2.335 0 0-.99.083-1.56.41-1.438.829-1.343 3.914.09 5.38 1.227 1.254 3.484.96 4.101.317Zm-7.236 1.67c-1.376.971-3.589.716-4.554-.036-1.269-.989-1.551-4.3-.475-5.266 1.161-1.042 2.423-1.157 3.786-.526 1.541.714 2.203 5.151 1.244 5.828ZM28.406 14.777H21.24a.181.181 0 0 1-.162-.267c.832-1.525.534-2.6.2-3.8-.248-.887-.515-1.844-.354-3.1.43-2.422 1.59-3.634 3.93-4.216 1.215-.303 2.66-.07 4.158.17 1.038.166 2.1.337 3.128.337.768 0 1.694-.142 2.662-.29 1.521-.233 3.143-.48 4.398-.217 2.415.507 3.708 1.89 3.84 4.087.089 1.463-.16 2.497-.372 3.378-.304 1.257-.53 2.203.403 3.639a.181.181 0 0 1-.154.28h-7.34a.384.384 0 0 1-.361-.256c-.263-.732-1.184-2.79-3.224-2.79s-2.962 2.058-3.225 2.79a.387.387 0 0 1-.361.255Zm-1.048-3.43c-1.435.817-3.3.804-4.025-.808-.821-1.831-.023-4.42 2.29-5.06 2.424-.671 4.768-.344 4.68 1.422-.066 1.313-1.267 3.493-2.945 4.446Zm13.407-.808c-.724 1.612-2.59 1.624-4.025.809-1.678-.954-2.88-3.134-2.945-4.446-.088-1.766 2.256-2.094 4.68-1.423 2.312.64 3.111 3.23 2.29 5.061Z"/></g><defs><clipPath id="a"><path d="M0 0h72v50H0z"/></clipPath></defs></svg>